<svg xmlns="http://www.w3.org/2000/svg" width="100" height="100" viewBox="0 0 100 100">
  <g id="services4" transform="translate(-1414 -1945)">
    <circle id="Ellipse_22" data-name="Ellipse 22" cx="50" cy="50" r="50" transform="translate(1414 1945)" fill="#39cca4" opacity="0.1"/>
    <g id="brushing" transform="translate(1442 1973)">
      <path id="Path_129" data-name="Path 129" d="M484.574,386.889a1.287,1.287,0,1,1-1.287-1.287A1.287,1.287,0,0,1,484.574,386.889Zm0,0" transform="translate(-440.637 -352.511)" fill="#39cca4"/>
      <path id="Path_130" data-name="Path 130" d="M50.774,178.021a1.287,1.287,0,1,1-1.287-1.287A1.287,1.287,0,0,1,50.774,178.021Zm0,0" transform="translate(-44.063 -161.567)" fill="#39cca4"/>
      <path id="Path_131" data-name="Path 131" d="M4.734,273.133a4.734,4.734,0,1,0,4.734,4.734A4.74,4.74,0,0,0,4.734,273.133Zm0,6.894a2.16,2.16,0,1,1,2.159-2.16A2.162,2.162,0,0,1,4.734,280.027Zm0,0" transform="translate(0 -249.694)" fill="#39cca4"/>
      <path id="Path_132" data-name="Path 132" d="M39.8,20.721V9.429A4.734,4.734,0,0,0,39.2,0H1.287a1.287,1.287,0,1,0,0,2.574H39.2a2.16,2.16,0,1,1,0,4.32H1.287a1.287,1.287,0,1,0,0,2.574H9.652v12.5a1.287,1.287,0,0,0,1.287,1.287H13.6a5.875,5.875,0,0,0-1.192,3.539,18.133,18.133,0,0,0,.953,5.8l3.155,9.368a2.994,2.994,0,0,0,5.376.536L23.9,39.043a1,1,0,0,1,1.649,0L27.56,42.5a2.994,2.994,0,0,0,5.376-.537l3.155-9.368a18.248,18.248,0,0,0,.747-3.079A4.733,4.733,0,1,0,39.8,20.721ZM12.226,9.468h25V20.682H34.286V13.7a1.287,1.287,0,0,0-2.574,0v6.985H28.771V13.7a1.287,1.287,0,0,0-2.574,0v6.985H23.256V13.7a1.287,1.287,0,0,0-2.574,0v6.985H17.741V13.7a1.287,1.287,0,0,0-2.574,0v6.985H12.226V9.468Zm21.425,22.3L30.5,41.139a.4.4,0,0,1-.383.224.383.383,0,0,1-.328-.161l-2.009-3.455a3.567,3.567,0,0,0-6.1,0L19.669,41.2a.383.383,0,0,1-.329.162.4.4,0,0,1-.382-.224L15.8,31.771a15.561,15.561,0,0,1-.819-4.976,3.714,3.714,0,0,1,3.86-3.539c2.507,0,3.3,1.025,5.882,1.025s3.375-1.025,5.883-1.025a3.714,3.714,0,0,1,3.86,3.539,15.574,15.574,0,0,1-.819,4.976Zm5.553-4.2a2.16,2.16,0,1,1,2.16-2.159A2.162,2.162,0,0,1,39.2,27.575Zm0,0" transform="translate(0 0)" fill="#39cca4"/>
    </g>
  </g>
</svg>
