<svg xmlns="http://www.w3.org/2000/svg" viewBox="0 0 456 15" width="456" height="15"><path d="M20.091 8.558l-4.081 4.206c-.439.452-.439 1.196 0 1.65.22.226.503.355.817.355.314 0 .596-.129.816-.355l6.028-6.213c.439-.452.439-1.197 0-1.649L17.612.34c-.44-.453-1.162-.453-1.602 0-.439.453-.439 1.197 0 1.65l4.081 4.206H1.13C.503 6.196 0 6.714 0 7.361s.503 1.197 1.13 1.197h18.961z" fill="#000000" fill-rule="evenodd"/><path d="M44.091 8.558l-4.081 4.206c-.439.452-.439 1.196 0 1.65.22.226.503.355.817.355.314 0 .596-.129.816-.355l6.028-6.213c.439-.452.439-1.197 0-1.649L41.612.34c-.44-.453-1.162-.453-1.602 0-.439.453-.439 1.197 0 1.65l4.081 4.206H25.36c-.627 0-1.13.518-1.13 1.165s.503 1.197 1.13 1.197h18.731z" fill="#060202" fill-rule="evenodd"/><path d="M68.091 8.558l-4.081 4.206c-.439.452-.439 1.196 0 1.65.22.226.503.355.817.355.314 0 .596-.129.816-.355l6.028-6.213c.439-.452.439-1.197 0-1.649L65.612.34c-.44-.453-1.162-.453-1.602 0-.439.453-.439 1.197 0 1.65l4.081 4.206H50.356c-.627 0-1.13.518-1.13 1.165s.503 1.197 1.13 1.197h17.735z" fill="#200808" fill-rule="evenodd"/><path d="M92.091 8.558l-4.081 4.206c-.439.452-.439 1.196 0 1.65.22.226.503.355.817.355.314 0 .596-.129.816-.355l6.028-6.213c.439-.452.439-1.197 0-1.649L89.612.34c-.44-.453-1.162-.453-1.602 0-.439.453-.439 1.197 0 1.65l4.081 4.206h-15.76c-.627 0-1.13.518-1.13 1.165s.503 1.197 1.13 1.197h15.76z" fill="#541515" fill-rule="evenodd"/><path d="M116.091 8.558l-4.081 4.206c-.439.452-.439 1.196 0 1.65.22.226.503.355.817.355.314 0 .596-.129.816-.355l6.028-6.213c.439-.452.439-1.197 0-1.649L113.612.34c-.44-.453-1.162-.453-1.602 0-.439.453-.439 1.197 0 1.65l4.081 4.206h-14.094c-.628 0-1.13.518-1.13 1.165s.502 1.197 1.13 1.197h14.094z" fill="#7f2121" fill-rule="evenodd"/><path d="M140.091 8.558l-4.081 4.206c-.439.452-.439 1.196 0 1.65.22.226.503.355.817.355.314 0 .596-.129.816-.355l6.028-6.213c.439-.452.439-1.197 0-1.649L137.612.34c-.44-.453-1.162-.453-1.602 0-.439.453-.439 1.197 0 1.65l4.081 4.206H126.99c-.627 0-1.13.518-1.13 1.165s.503 1.197 1.13 1.197h13.101z" fill="#992727" fill-rule="evenodd"/><path d="M164.091 8.558l-4.081 4.206c-.439.452-.439 1.196 0 1.65.22.226.503.355.817.355.314 0 .596-.129.816-.355l6.028-6.213c.439-.452.439-1.197 0-1.649L161.612.34c-.44-.453-1.162-.453-1.602 0-.439.453-.439 1.197 0 1.65l4.081 4.206h-12.515c-.628 0-1.131.518-1.131 1.165s.503 1.197 1.131 1.197h12.515z" fill="#a92b2b" fill-rule="evenodd"/><path d="M188.091 8.558l-4.081 4.206c-.439.452-.439 1.196 0 1.65.22.226.503.355.817.355.314 0 .596-.129.816-.355l6.028-6.213c.439-.452.439-1.197 0-1.649L185.612.34c-.44-.453-1.162-.453-1.602 0-.439.453-.439 1.197 0 1.65l4.081 4.206h-12.179c-.628 0-1.13.518-1.13 1.165s.502 1.197 1.13 1.197h12.179z" fill="#b12e2e" fill-rule="evenodd"/><path d="M212.091 8.558l-4.081 4.206c-.439.452-.439 1.196 0 1.65.22.226.503.355.817.355.314 0 .596-.129.816-.355l6.028-6.213c.439-.452.439-1.197 0-1.649L209.612.34c-.44-.453-1.162-.453-1.602 0-.439.453-.439 1.197 0 1.65l4.081 4.206h-12.01c-.628 0-1.13.518-1.13 1.165s.502 1.197 1.13 1.197h12.01z" fill="#b62f2f" fill-rule="evenodd"/><path d="M236.091 8.558l-4.081 4.206c-.439.452-.439 1.196 0 1.65.22.226.503.355.817.355.314 0 .596-.129.816-.355l6.028-6.213c.439-.452.439-1.197 0-1.649L233.612.34c-.44-.453-1.162-.453-1.602 0-.439.453-.439 1.197 0 1.65l4.081 4.206H224.13c-.627 0-1.13.518-1.13 1.165s.503 1.197 1.13 1.197h11.961z" fill="#b72f2f" fill-rule="evenodd"/><path d="M260.091 8.558l-4.081 4.206c-.439.452-.439 1.196 0 1.65.22.226.503.355.817.355.314 0 .596-.129.816-.355l6.028-6.213c.439-.452.439-1.197 0-1.649L257.612.34c-.44-.453-1.162-.453-1.602 0-.439.453-.439 1.197 0 1.65l4.081 4.206h-12.19c-.628 0-1.131.518-1.131 1.165s.503 1.197 1.131 1.197h12.19z" fill="#b12d2d" fill-rule="evenodd"/><path d="M284.091 8.558l-4.081 4.206c-.439.452-.439 1.196 0 1.65.22.226.503.355.817.355.314 0 .596-.129.816-.355l6.028-6.213c.439-.452.439-1.197 0-1.649L281.612.34c-.44-.453-1.162-.453-1.602 0-.439.453-.439 1.197 0 1.65l4.081 4.206h-13.187c-.628 0-1.13.518-1.13 1.165s.502 1.197 1.13 1.197h13.187z" fill="#972727" fill-rule="evenodd"/><path d="M308.091 8.558l-4.081 4.206c-.439.452-.439 1.196 0 1.65.22.226.503.355.817.355.314 0 .596-.129.816-.355l6.028-6.213c.439-.452.439-1.197 0-1.649L305.612.34c-.44-.453-1.162-.453-1.602 0-.439.453-.439 1.197 0 1.65l4.081 4.206h-15.162c-.627 0-1.13.518-1.13 1.165s.503 1.197 1.13 1.197h15.162z" fill="#631a1a" fill-rule="evenodd"/><path d="M332.091 8.558l-4.081 4.206c-.439.452-.439 1.196 0 1.65.22.226.503.355.817.355.314 0 .596-.129.816-.355l6.028-6.213c.439-.452.439-1.197 0-1.649L329.612.34c-.44-.453-1.162-.453-1.602 0-.439.453-.439 1.197 0 1.65l4.081 4.206h-16.828c-.627 0-1.13.518-1.13 1.165s.503 1.197 1.13 1.197h16.828z" fill="#380e0e" fill-rule="evenodd"/><path d="M356.091 8.558l-4.081 4.206c-.439.452-.439 1.196 0 1.65.22.226.503.355.817.355.314 0 .596-.129.816-.355l6.028-6.213c.439-.452.439-1.197 0-1.649L353.612.34c-.44-.453-1.162-.453-1.602 0-.439.453-.439 1.197 0 1.65l4.081 4.206H338.27c-.627 0-1.13.518-1.13 1.165s.503 1.197 1.13 1.197h17.821z" fill="#1e0808" fill-rule="evenodd"/><path d="M380.091 8.558l-4.081 4.206c-.439.452-.439 1.196 0 1.65.22.226.503.355.817.355.314 0 .596-.129.816-.355l6.028-6.213c.439-.452.439-1.197 0-1.649L377.612.34c-.44-.453-1.162-.453-1.602 0-.439.453-.439 1.197 0 1.65l4.081 4.206h-18.406c-.627 0-1.13.518-1.13 1.165s.503 1.197 1.13 1.197h18.406z" fill="#0e0404" fill-rule="evenodd"/><path d="M404.091 8.558l-4.081 4.206c-.439.452-.439 1.196 0 1.65.22.226.503.355.817.355.314 0 .596-.129.816-.355l6.028-6.213c.439-.452.439-1.197 0-1.649L401.612.34c-.44-.453-1.162-.453-1.602 0-.439.453-.439 1.197 0 1.65l4.081 4.206h-18.743c-.627 0-1.13.518-1.13 1.165s.503 1.197 1.13 1.197h18.743z" fill="#060101" fill-rule="evenodd"/><path d="M428.091 8.558l-4.081 4.206c-.439.452-.439 1.196 0 1.65.22.226.503.355.817.355.314 0 .596-.129.816-.355l6.028-6.213c.439-.452.439-1.197 0-1.649L425.612.34c-.44-.453-1.162-.453-1.602 0-.439.453-.439 1.197 0 1.65l4.081 4.206h-18.912c-.627 0-1.13.518-1.13 1.165s.503 1.197 1.13 1.197h18.912z" fill="#010000" fill-rule="evenodd"/><path d="M452.091 8.558l-4.081 4.206c-.439.452-.439 1.196 0 1.65.22.226.503.355.817.355.314 0 .596-.129.816-.355l6.028-6.213c.439-.452.439-1.197 0-1.649L449.612.34c-.44-.453-1.162-.453-1.602 0-.439.453-.439 1.197 0 1.65l4.081 4.206H433.13c-.627 0-1.13.518-1.13 1.165s.503 1.197 1.13 1.197h18.961z" fill="#000000" fill-rule="evenodd"/></svg>