<?xml version="1.0" encoding="UTF-8"?>
<svg width="108px" height="30px" viewBox="0 0 108 30" version="1.1" xmlns="http://www.w3.org/2000/svg" xmlns:xlink="http://www.w3.org/1999/xlink">
    <title>LOGO-white</title>
    <defs>
        <polygon id="path-1" points="0.130942857 0.116742857 3.08571429 0.116742857 3.08571429 3.0016 0.130942857 3.0016"></polygon>
        <polygon id="path-3" points="0.0985142857 0.135142857 10.9982286 0.135142857 10.9982286 9.89462857 0.0985142857 9.89462857"></polygon>
        <polygon id="path-5" points="0.00371428571 0.243514286 11.6371429 0.243514286 11.6371429 16.8571429 0.00371428571 16.8571429"></polygon>
        <polygon id="path-7" points="0.2456 0.243571429 11.8787429 0.243571429 11.8787429 16.8571429 0.2456 16.8571429"></polygon>
        <polygon id="path-9" points="0.0170826326 0.119457143 12.2240203 0.119457143 12.2240203 17.1428571 0.0170826326 17.1428571"></polygon>
    </defs>
    <g id="LOGO-white" stroke="none" stroke-width="1" fill="none" fill-rule="evenodd">
        <g id="Group-24" transform="translate(0.000000, 0.000000)">
            <g id="Group-3" transform="translate(104.857143, 25.579143)">
                <mask id="mask-2" fill="white">
                    <use xlink:href="#path-1"></use>
                </mask>
                <g id="Clip-2"></g>
                <path d="M1.39551429,1.49274286 L1.5518,1.49274286 C1.73522857,1.49274286 1.88551429,1.43188571 1.88551429,1.28417143 C1.88551429,1.15274286 1.7878,1.06302857 1.57808571,1.06302857 C1.49094286,1.06302857 1.43008571,1.07217143 1.39551429,1.08274286 L1.39551429,1.49274286 Z M1.38437143,2.29902857 L1.05122857,2.29902857 L1.05122857,0.864457143 C1.18351429,0.845028571 1.36751429,0.820457143 1.60465714,0.820457143 C1.87608571,0.820457143 2.00037143,0.864457143 2.0958,0.932171429 C2.18237143,0.992171429 2.24437143,1.09817143 2.24437143,1.24017143 C2.24437143,1.4156 2.11208571,1.53017143 1.94637143,1.58188571 L1.94637143,1.60017143 C2.08694286,1.64388571 2.1578,1.75502857 2.20065714,1.95074286 C2.24437143,2.1676 2.28065714,2.24845714 2.3078,2.29902857 L1.95522857,2.29902857 C1.91008571,2.24845714 1.88551429,2.12531429 1.84151429,1.95074286 C1.8158,1.80074286 1.72751429,1.73017143 1.54408571,1.73017143 L1.38437143,1.73017143 L1.38437143,2.29902857 Z M0.499228571,1.55502857 C0.499228571,2.19588571 0.981514286,2.70274286 1.62037143,2.70274286 C2.24437143,2.71331429 2.71751429,2.19588571 2.71751429,1.56274286 C2.71751429,0.924457143 2.24437143,0.407028571 1.60465714,0.407028571 C0.981514286,0.407028571 0.499228571,0.924457143 0.499228571,1.55502857 L0.499228571,1.55502857 Z M3.0858,1.55502857 C3.0858,2.3636 2.43694286,3.0016 1.61265714,3.0016 C0.788942857,3.0016 0.130942857,2.3636 0.130942857,1.55502857 C0.130942857,0.749028571 0.788942857,0.116742857 1.62037143,0.116742857 C2.43694286,0.116742857 3.0858,0.749028571 3.0858,1.55502857 L3.0858,1.55502857 Z" id="Fill-1" fill="#FFFFFF" mask="url(#mask-2)"></path>
            </g>
            <g id="Group-6" transform="translate(92.571429, 0.150571)">
                <mask id="mask-4" fill="white">
                    <use xlink:href="#path-3"></use>
                </mask>
                <g id="Clip-5"></g>
                <path d="M4.85422857,3.39062857 C4.5628,5.13777143 3.9408,6.82548571 2.57251429,8.24348571 C1.92051429,8.91577143 0.981371429,9.62348571 0.0985142857,9.89462857 L2.00365714,9.89462857 C5.49594286,9.89462857 7.2348,9.33605714 8.41994286,8.1192 C10.5708,5.88834286 10.5368,3.44234286 10.9982286,0.134914286 L7.77165714,0.134914286 C6.95622857,0.134914286 5.38708571,0.176914286 4.85422857,3.39062857" id="Fill-4" fill="#E20714" mask="url(#mask-4)"></path>
            </g>
            <path d="M66.0500857,23.1441429 C66.6032286,20.965 67.3252286,18.7267143 68.1538,16.6867143 C69.0512286,18.5181429 69.7766571,20.7947143 70.3989429,23.1441429 L66.0500857,23.1441429 Z M71.1249429,12.6807143 L66.1835143,12.6807143 C64.1260857,16.4252857 62.4758,22.0818571 61.0969429,28.939 L64.9229429,28.939 C65.0578,27.9687143 65.2263714,26.9372857 65.4592286,25.8724286 L71.0220857,25.8724286 C71.2526571,26.9372857 71.4523714,27.9984286 71.6209429,28.939 L76.3140857,28.939 C75.0395143,23.0261429 73.0138,16.421 71.1249429,12.6807143 L71.1249429,12.6807143 Z" id="Fill-7" fill="#FFFFFF"></path>
            <path d="M84.0021143,10.0450857 L17.9472571,10.0450857 L17.9472571,28.6485143 C17.6066857,28.8522286 16.4861143,28.9439429 15.7069714,28.9439429 C12.0826857,28.9439429 11.0009714,26.4088 10.7284,25.8959429 L3.9804,13.4799429 L3.9804,28.9390857 L0.000114285714,28.9390857 L0.000114285714,7.16994286 C0.469828571,6.96822857 1.45582857,6.86222857 2.23782857,6.86222857 C4.86554286,6.86222857 5.81697143,7.52622857 7.2184,10.0450857 L13.9975429,22.6896571 L13.9975429,7.01537143 L89.5852571,7.01537143 C89.5852571,8.98337143 86.4189714,10.0450857 84.0021143,10.0450857" id="Fill-9" fill="#FFFFFF"></path>
            <g id="Group-13" transform="translate(91.428571, 12.436286)">
                <mask id="mask-6" fill="white">
                    <use xlink:href="#path-5"></use>
                </mask>
                <g id="Clip-12"></g>
                <path d="M7.98257143,13.7823714 C6.32342857,13.7823714 5.31971429,13.6426571 4.80342857,12.8869429 C4.352,12.2323714 4.32142857,11.1192286 4.32142857,9.84637143 L10.5714286,9.84637143 L10.5714286,6.7738 L4.32142857,6.7738 L4.32142857,3.3238 L11.5734286,3.3238 L11.5734286,0.243514286 L0.00371428571,0.243514286 L0.00371428571,9.91494286 C0.00371428571,12.1940857 0.381428571,14.2326571 1.34628571,15.2052286 C2.59628571,16.4075143 4.73371429,16.8572286 7.56457143,16.8572286 C9.04942857,16.8572286 10.6405714,16.6146571 11.6371429,16.1320857 L11.6371429,13.2615143 C10.4322857,13.6149429 9.19085714,13.7823714 7.98257143,13.7823714" id="Fill-11" fill="#FFFFFF" mask="url(#mask-6)"></path>
            </g>
            <g id="Group-16" transform="translate(20.571429, 12.436286)">
                <mask id="mask-8" fill="white">
                    <use xlink:href="#path-7"></use>
                </mask>
                <g id="Clip-15"></g>
                <path d="M5.04131429,12.887 C4.59245714,12.2324286 4.55702857,11.1192857 4.55702857,9.84614286 L10.8121714,9.84614286 L10.8121714,6.77385714 L4.55702857,6.77385714 L4.55702857,3.32385714 L11.8121714,3.32385714 L11.8121714,0.243571429 L0.2456,0.243571429 L0.2456,9.915 C0.2456,12.1941429 0.618742857,14.2327143 1.58702857,15.199 C2.83245714,16.4072857 4.97131429,16.8572857 7.8056,16.8572857 C9.29131429,16.8572857 10.8764571,16.6147143 11.8787429,16.1318571 L11.8787429,13.2615714 C10.6701714,13.615 9.42817143,13.7824286 8.2176,13.7824286 C6.56588571,13.7824286 5.56045714,13.6427143 5.04131429,12.887" id="Fill-14" fill="#FFFFFF" mask="url(#mask-8)"></path>
            </g>
            <g id="Group-19" transform="translate(34.285714, 12.150571)">
                <mask id="mask-10" fill="white">
                    <use xlink:href="#path-9"></use>
                </mask>
                <g id="Clip-18"></g>
                <path d="M4.01034286,4.4266 C4.2432,3.29431429 5.38234286,3.22945714 6.5232,3.22945714 C8.25205714,3.22945714 9.69662857,3.53602857 11.1872,3.98345714 L11.1872,1.04974286 C10.4937714,0.634028571 8.7652,0.119457143 6.31805714,0.119457143 C4.34691429,0.119457143 2.48434286,0.393742857 1.0992,1.70345714 C-0.176514286,2.91345714 -0.4508,7.09488571 0.965485714,8.57602857 C1.99777143,9.66031429 4.25634286,10.2528857 5.97062857,10.8423143 C6.66262857,11.0797429 8.06777143,11.4057429 8.00062857,12.5974571 C7.91548571,14.1048857 6.62777143,14.0680286 5.48691429,14.0680286 C3.76034286,14.0680286 2.06805714,13.7240286 0.480628571,13.2743143 L0.480628571,16.2463143 C1.27748571,16.6931714 2.93062857,17.1428857 5.55462857,17.1428857 C7.35148571,17.1428857 9.52491429,16.7977429 10.8034857,15.8308857 C12.4623429,14.5543143 12.7552,10.5914571 11.2189143,8.81945714 C10.1709143,7.61088571 7.45034286,7.03031429 5.66262857,6.29402857 C4.58434286,5.84917143 3.7532,5.67545714 4.01034286,4.4266" id="Fill-17" fill="#FFFFFF" mask="url(#mask-10)"></path>
            </g>
            <path d="M53.6164857,25.3570286 C53.1322,24.6304571 52.9953429,23.1456 52.9953429,20.7961714 C52.9953429,18.4501714 53.1322,16.9961714 53.6164857,16.2350286 C54.0619143,15.5496 55.2030571,15.3798857 56.4116286,15.3798857 C57.5176286,15.3798857 58.5539143,15.5136 59.6627714,15.8938857 L59.6627714,12.9930286 C58.7639143,12.5441714 57.3782,12.3010286 56.1030571,12.3010286 C53.7179143,12.3010286 51.3402,12.6453143 50.0276286,13.9953143 C48.7856286,15.2753143 48.3722,17.9647429 48.3722,20.7961714 C48.3722,23.6233143 48.7856286,26.2878857 50.0276286,27.5673143 C51.3402,28.9481714 53.7179143,29.2933143 56.1030571,29.2933143 C57.2762,29.2933143 58.5204857,29.1224571 59.3482,28.7067429 L60.0070571,25.6976 C58.7944857,26.0787429 57.7599143,26.2187429 56.4116286,26.2187429 C55.2030571,26.2187429 54.0619143,26.0513143 53.6164857,25.3570286" id="Fill-20" fill="#FFFFFF"></path>
            <path d="M77.9234286,26.6003429 C77.9234286,28.9800571 79.93,29.2912 82.2494286,29.2912 L82.2494286,22.2826286 L88.876,22.2826286 L88.876,19.2100571 L82.2494286,19.2100571 L82.2494286,15.7603429 L89.5005714,15.7603429 L89.5005714,12.6797714 L77.9234286,12.6797714 L77.9234286,26.6003429 Z" id="Fill-22" fill="#FFFFFF"></path>
        </g>
    </g>
</svg>