<svg xmlns="http://www.w3.org/2000/svg" width="100" height="100" viewBox="0 0 100 100">
  <g id="services2" transform="translate(-742 -1945)">
    <circle id="Ellipse_20" data-name="Ellipse 20" cx="50" cy="50" r="50" transform="translate(742 1945)" fill="#39cca4" opacity="0.1"/>
    <g id="brushing-teeth" transform="translate(770.031 1973.031)">
      <path id="Path_127" data-name="Path 127" d="M43.938,258.734a6.46,6.46,0,0,0-2.788-5.3,5.147,5.147,0,0,0,.128-1.135v-7.723H33.554V242H10.384v2.574H2.66V252.3a5.147,5.147,0,0,0,.128,1.135A6.46,6.46,0,0,0,0,258.734v6.436H43.938ZM38.7,247.149V252.3a2.574,2.574,0,0,1-5.149,0v-5.149Zm-15.447-2.574H30.98v6.436a3.862,3.862,0,0,1-7.723,0Zm-10.3,0h7.723v6.436a3.862,3.862,0,0,1-7.723,0Zm-7.723,2.574h5.149V252.3a2.574,2.574,0,0,1-5.149,0ZM41.363,262.6H2.574v-3.862a3.877,3.877,0,0,1,1.415-2.987,5.142,5.142,0,0,0,8.016-.471,6.427,6.427,0,0,0,9.963-.408,6.427,6.427,0,0,0,9.963.408,5.141,5.141,0,0,0,8.016.471,3.877,3.877,0,0,1,1.415,2.987Z" transform="translate(0 -221.233)" fill="#39cca4"/>
      <path id="Path_128" data-name="Path 128" d="M119.319,7.723h7.809V0H94.862A3.866,3.866,0,0,0,91,3.862V18.193h28.319ZM93.574,3.862a1.289,1.289,0,0,1,1.287-1.287h29.692V5.149H93.574ZM101.3,7.723v7.9H98.723v-7.9Zm2.574,0h2.575v7.9h-2.575Zm5.149,0H111.6v7.9h-2.574Zm-15.447,0h2.574v7.9H93.574Zm20.6,7.9v-7.9h2.574v7.9Z" transform="translate(-83.191)" fill="#39cca4"/>
    </g>
  </g>
</svg>
