<svg xmlns="http://www.w3.org/2000/svg" width="100" height="100" viewBox="0 0 100 100">
  <g id="services1" transform="translate(-406 -1945)">
    <circle id="Ellipse_19" data-name="Ellipse 19" cx="50" cy="50" r="50" transform="translate(406 1945)" fill="#39cca4" opacity="0.1"/>
    <path id="anesthesia" d="M39.047,25.83H33.469v-2.79a6.447,6.447,0,0,0,5.149-6.307V6.436A1.287,1.287,0,0,0,37.33,5.149H33.469V2.574H37.33A1.287,1.287,0,1,0,37.33,0h-10.3a1.287,1.287,0,1,0,0,2.574h3.862V5.149H27.032a1.287,1.287,0,0,0-1.287,1.287v10.3a6.447,6.447,0,0,0,5.149,6.307v2.79H22.489c1.018-4.032,1.316-9.153-2.153-11.5-1.832-1.238-4.263-1.4-6.176-1.4s-4.343.159-6.176,1.4C4.516,16.676,4.812,21.8,5.831,25.83H4.72A4.725,4.725,0,0,0,0,30.55v12.1a1.287,1.287,0,0,0,1.287,1.287H42.479a1.287,1.287,0,0,0,1.287-1.287V30.55a4.725,4.725,0,0,0-4.72-4.72Zm-3-18.107V10.3H28.32V7.723ZM28.32,16.734V12.872h7.723v3.862a3.862,3.862,0,0,1-7.723,0ZM14.16,15.511c4.169,0,6.428.849,6.428,5.326,0,5.47-3.334,12.673-6.428,12.673s-6.428-7.2-6.428-12.673C7.732,16.36,9.991,15.511,14.16,15.511ZM41.192,41.363H2.575V30.55A2.148,2.148,0,0,1,4.72,28.4H6.634c3.813,10.2,11.212,10.271,15.053,0h9.208v3.776a1.287,1.287,0,0,0,2.574,0V28.4h5.578a2.148,2.148,0,0,1,2.145,2.145Zm0,0" transform="translate(434.117 1973.031)" fill="#39cca4"/>
  </g>
</svg>
