<svg xmlns="http://www.w3.org/2000/svg" width="100" height="100" viewBox="0 0 100 100">
  <g id="services3" transform="translate(-1078 -1945)">
    <circle id="Ellipse_21" data-name="Ellipse 21" cx="50" cy="50" r="50" transform="translate(1078 1945)" fill="#39cca4" opacity="0.1"/>
    <path id="dental-crown" d="M22.344,1.515a5.89,5.89,0,0,1-5.991,0C7.144-3.931-3.3,6.308.992,16.508a22.093,22.093,0,0,1,1.729,9.909,18.963,18.963,0,0,0,8.313,17.313c.412.262.5.2,3.122.2a1.287,1.287,0,0,0,1.287-1.287V32.177a3.862,3.862,0,1,1,7.723.085V42.644a1.287,1.287,0,0,0,1.287,1.287c2.965,0,3.027.064,3.449-.218,5.083-3.408,8.392-9.938,8-17.12a22.13,22.13,0,0,1,1.756-9.97C42.066,6.414,31.607-3.964,22.343,1.515Zm4.44,39.842H25.741v-9.1a6.436,6.436,0,1,0-12.872-.085v9.18H12.11A16.366,16.366,0,0,1,5.29,26.583a23.2,23.2,0,0,0-.034-3.408h8.9a1.287,1.287,0,0,0,1.287-1.287V15.453h7.723v6.434a1.287,1.287,0,0,0,1.287,1.287h8.933a24.8,24.8,0,0,0-.058,3.561c.322,5.858-2.238,11.549-6.546,14.621ZM35.293,15.6a24.327,24.327,0,0,0-1.542,5H25.741V14.166a1.287,1.287,0,0,0-1.287-1.287h-10.3a1.287,1.287,0,0,0-1.287,1.287V20.6H4.9a25.522,25.522,0,0,0-1.539-5.089C.067,7.666,7.9-.491,15.042,3.731a8.464,8.464,0,0,0,8.612,0C30.847-.524,38.674,7.773,35.293,15.6Zm0,0" transform="translate(1108.652 1973.032)" fill="#39cca4"/>
  </g>
</svg>
